<svg id="Capa_1" data-name="Capa 1" xmlns="http://www.w3.org/2000/svg" viewBox="0 0 37.32 36.56"><defs><style>.cls-1{fill:#fff;}</style></defs><title>instagram-icon</title><path class="cls-1" d="M18.66,8.9a9.39,9.39,0,1,0,9.57,9.38A9.39,9.39,0,0,0,18.66,8.9Zm0,15.48a6.1,6.1,0,1,1,6.21-6.1A6.1,6.1,0,0,1,18.66,24.38Z" transform="translate(0 0)"/><path class="cls-1" d="M26.36.12C22.92,0,14.42,0,11,.12c-3,.14-5.69.85-7.83,3C-.44,6.63,0,11.37,0,18.32S-.34,30,3.15,33.46s8.51,3.1,15.51,3.1c7.19,0,9.67,0,12.21-1,3.46-1.32,6.07-4.34,6.33-9.78.16-3.37.15-11.7,0-15.07C36.9,4.33,33.38.46,26.36.12Zm5.43,31c-2.35,2.34-5.62,2.14-13.13,2.14-7.77,0-10.89.12-13.17-2.12-2.66-2.55-2.18-6.68-2.18-12.88,0-8.42-.89-14.48,7.74-14.92,2-.06,2.56-.09,7.55-.09l.07,0c8.29,0,14.79-.85,15.18,7.6.09,1.92.11,2.5.11,7.38,0,7.53.14,10.61-2.17,12.88Z" transform="translate(0 0)"/><path class="cls-1" d="M28.66,10.72a2.19,2.19,0,1,0-2.23-2.19,2.19,2.19,0,0,0,2.23,2.19Z" transform="translate(0 0)"/></svg>